<?xml version="1.0" encoding="UTF-8" standalone="no"?>
<!DOCTYPE svg PUBLIC "-//W3C//DTD SVG 1.1//EN"
 "http://www.w3.org/Graphics/SVG/1.1/DTD/svg11.dtd">
<!-- Generated by graphviz version 11.0.0 (20240428.1522)
 -->
<!-- Title: Entity Relationship Diagram created by erdantic Pages: 1 -->
<svg width="1028pt" height="523pt"
 viewBox="0.00 0.00 1028.00 522.75" xmlns="http://www.w3.org/2000/svg" xmlns:xlink="http://www.w3.org/1999/xlink">
<g id="graph0" class="graph" transform="scale(1 1) rotate(0) translate(4 518.75)">
<title>Entity Relationship Diagram created by erdantic</title>
<polygon fill="white" stroke="none" points="-4,4 -4,-518.75 1024,-518.75 1024,4 -4,4"/>
<text text-anchor="middle" x="510" y="-6.7" font-family="Times New Roman,Times,Liberation Serif,serif" font-size="9.00" fill="#a8a8a8">Created by erdantic v1.0.4 &lt;https://github.com/drivendataorg/erdantic&gt;</text>
<!-- aind_bci_no_movement.task_logic.BciNoMovementTaskLogic -->
<g id="node1" class="node">
<title>aind_bci_no_movement.task_logic.BciNoMovementTaskLogic</title>
<g id="a_node1"><a xlink:title="aind_bci_no_movement.task_logic.BciNoMovementTaskLogic&#10;&#10;Base Task Primitive.&#10;Holds Task metadata and parameters.&#10;">
<polygon fill="none" stroke="black" points="0,-492.75 0,-514.75 286,-514.75 286,-492.75 0,-492.75"/>
<text text-anchor="start" x="58.62" y="-499.45" font-family="Times New Roman,Times,Liberation Serif,serif" font-weight="bold" font-size="14.00">BciNoMovementTaskLogic</text>
<polygon fill="none" stroke="black" points="0,-471.75 0,-492.75 96,-492.75 96,-471.75 0,-471.75"/>
<text text-anchor="start" x="33.38" y="-476.45" font-family="Times New Roman,Times,Liberation Serif,serif" font-size="14.00">name</text>
<polygon fill="none" stroke="black" points="96,-471.75 96,-492.75 286,-492.75 286,-471.75 96,-471.75"/>
<text text-anchor="start" x="183.88" y="-476.45" font-family="Times New Roman,Times,Liberation Serif,serif" font-size="14.00">str</text>
<polygon fill="none" stroke="black" points="0,-450.75 0,-471.75 96,-471.75 96,-450.75 0,-450.75"/>
<text text-anchor="start" x="16.88" y="-455.45" font-family="Times New Roman,Times,Liberation Serif,serif" font-size="14.00">description</text>
<polygon fill="none" stroke="black" points="96,-450.75 96,-471.75 286,-471.75 286,-450.75 96,-450.75"/>
<text text-anchor="start" x="183.88" y="-455.45" font-family="Times New Roman,Times,Liberation Serif,serif" font-size="14.00">str</text>
<polygon fill="none" stroke="black" points="0,-429.75 0,-450.75 96,-450.75 96,-429.75 0,-429.75"/>
<text text-anchor="start" x="2.62" y="-434.45" font-family="Times New Roman,Times,Liberation Serif,serif" font-size="14.00">task_parameters</text>
<polygon fill="none" stroke="black" points="96,-429.75 96,-450.75 286,-450.75 286,-429.75 96,-429.75"/>
<text text-anchor="start" x="98.75" y="-434.45" font-family="Times New Roman,Times,Liberation Serif,serif" font-size="14.00">BciNoMovementTaskParameters</text>
<polygon fill="none" stroke="black" points="0,-408.75 0,-429.75 96,-429.75 96,-408.75 0,-408.75"/>
<text text-anchor="start" x="27.75" y="-413.45" font-family="Times New Roman,Times,Liberation Serif,serif" font-size="14.00">version</text>
<polygon fill="none" stroke="black" points="96,-408.75 96,-429.75 286,-429.75 286,-408.75 96,-408.75"/>
<text text-anchor="start" x="152.38" y="-413.45" font-family="Times New Roman,Times,Liberation Serif,serif" font-size="14.00">Literal[&#39;0.0.1&#39;]</text>
<polygon fill="none" stroke="black" points="0,-387.75 0,-408.75 96,-408.75 96,-387.75 0,-387.75"/>
<text text-anchor="start" x="15.38" y="-392.45" font-family="Times New Roman,Times,Liberation Serif,serif" font-size="14.00">stage_name</text>
<polygon fill="none" stroke="black" points="96,-387.75 96,-408.75 286,-408.75 286,-387.75 96,-387.75"/>
<text text-anchor="start" x="155.38" y="-392.45" font-family="Times New Roman,Times,Liberation Serif,serif" font-size="14.00">Optional[str]</text>
</a>
</g>
</g>
<!-- aind_bci_no_movement.task_logic.BciNoMovementTaskParameters -->
<g id="node2" class="node">
<title>aind_bci_no_movement.task_logic.BciNoMovementTaskParameters</title>
<g id="a_node2"><a xlink:title="aind_bci_no_movement.task_logic.BciNoMovementTaskParameters&#10;&#10;Set of parameters associated with a subject task.&#10;Subclass with Task Parameters.&#10;">
<polygon fill="none" stroke="black" points="394,-429.75 394,-451.75 714,-451.75 714,-429.75 394,-429.75"/>
<text text-anchor="start" x="451.25" y="-436.45" font-family="Times New Roman,Times,Liberation Serif,serif" font-weight="bold" font-size="14.00">BciNoMovementTaskParameters</text>
<polygon fill="none" stroke="black" points="394,-408.75 394,-429.75 613,-429.75 613,-408.75 394,-408.75"/>
<text text-anchor="start" x="478" y="-413.45" font-family="Times New Roman,Times,Liberation Serif,serif" font-size="14.00">rng_seed</text>
<polygon fill="none" stroke="black" points="613,-408.75 613,-429.75 714,-429.75 714,-408.75 613,-408.75"/>
<text text-anchor="start" x="622.62" y="-413.45" font-family="Times New Roman,Times,Liberation Serif,serif" font-size="14.00">Optional[float]</text>
<polygon fill="none" stroke="black" points="394,-387.75 394,-408.75 613,-408.75 613,-387.75 394,-387.75"/>
<text text-anchor="start" x="456.25" y="-392.45" font-family="Times New Roman,Times,Liberation Serif,serif" font-size="14.00">valve_open_time</text>
<polygon fill="none" stroke="black" points="613,-387.75 613,-408.75 714,-408.75 714,-387.75 613,-387.75"/>
<text text-anchor="start" x="651.12" y="-392.45" font-family="Times New Roman,Times,Liberation Serif,serif" font-size="14.00">float</text>
<polygon fill="none" stroke="black" points="394,-366.75 394,-387.75 613,-387.75 613,-366.75 394,-366.75"/>
<text text-anchor="start" x="440.12" y="-371.45" font-family="Times New Roman,Times,Liberation Serif,serif" font-size="14.00">wait_microscope_time</text>
<polygon fill="none" stroke="black" points="613,-366.75 613,-387.75 714,-387.75 714,-366.75 613,-366.75"/>
<text text-anchor="start" x="651.12" y="-371.45" font-family="Times New Roman,Times,Liberation Serif,serif" font-size="14.00">float</text>
<polygon fill="none" stroke="black" points="394,-345.75 394,-366.75 613,-366.75 613,-345.75 394,-345.75"/>
<text text-anchor="start" x="454.38" y="-350.45" font-family="Times New Roman,Times,Liberation Serif,serif" font-size="14.00">low_activity_time</text>
<polygon fill="none" stroke="black" points="613,-345.75 613,-366.75 714,-366.75 714,-345.75 613,-345.75"/>
<text text-anchor="start" x="651.12" y="-350.45" font-family="Times New Roman,Times,Liberation Serif,serif" font-size="14.00">float</text>
<polygon fill="none" stroke="black" points="394,-324.75 394,-345.75 613,-345.75 613,-324.75 394,-324.75"/>
<text text-anchor="start" x="449.5" y="-329.45" font-family="Times New Roman,Times,Liberation Serif,serif" font-size="14.00">lick_response_time</text>
<polygon fill="none" stroke="black" points="613,-324.75 613,-345.75 714,-345.75 714,-324.75 613,-324.75"/>
<text text-anchor="start" x="651.12" y="-329.45" font-family="Times New Roman,Times,Liberation Serif,serif" font-size="14.00">float</text>
<polygon fill="none" stroke="black" points="394,-303.75 394,-324.75 613,-324.75 613,-303.75 394,-303.75"/>
<text text-anchor="start" x="466.75" y="-308.45" font-family="Times New Roman,Times,Liberation Serif,serif" font-size="14.00">wait_for_lick</text>
<polygon fill="none" stroke="black" points="613,-303.75 613,-324.75 714,-324.75 714,-303.75 613,-303.75"/>
<text text-anchor="start" x="650.75" y="-308.45" font-family="Times New Roman,Times,Liberation Serif,serif" font-size="14.00">bool</text>
<polygon fill="none" stroke="black" points="394,-282.75 394,-303.75 613,-303.75 613,-282.75 394,-282.75"/>
<text text-anchor="start" x="396.62" y="-287.45" font-family="Times New Roman,Times,Liberation Serif,serif" font-size="14.00">enable_sound_on_reward_zone_entry</text>
<polygon fill="none" stroke="black" points="613,-282.75 613,-303.75 714,-303.75 714,-282.75 613,-282.75"/>
<text text-anchor="start" x="650.75" y="-287.45" font-family="Times New Roman,Times,Liberation Serif,serif" font-size="14.00">bool</text>
<polygon fill="none" stroke="black" points="394,-261.75 394,-282.75 613,-282.75 613,-261.75 394,-261.75"/>
<text text-anchor="start" x="412.75" y="-266.45" font-family="Times New Roman,Times,Liberation Serif,serif" font-size="14.00">no_movement_time_before_trial</text>
<polygon fill="none" stroke="black" points="613,-261.75 613,-282.75 714,-282.75 714,-261.75 613,-261.75"/>
<text text-anchor="start" x="651.12" y="-266.45" font-family="Times New Roman,Times,Liberation Serif,serif" font-size="14.00">float</text>
<polygon fill="none" stroke="black" points="394,-240.75 394,-261.75 613,-261.75 613,-240.75 394,-240.75"/>
<text text-anchor="start" x="454" y="-245.45" font-family="Times New Roman,Times,Liberation Serif,serif" font-size="14.00">inter_trial_interval</text>
<polygon fill="none" stroke="black" points="613,-240.75 613,-261.75 714,-261.75 714,-240.75 613,-240.75"/>
<text text-anchor="start" x="651.12" y="-245.45" font-family="Times New Roman,Times,Liberation Serif,serif" font-size="14.00">float</text>
<polygon fill="none" stroke="black" points="394,-219.75 394,-240.75 613,-240.75 613,-219.75 394,-219.75"/>
<text text-anchor="start" x="440.12" y="-224.45" font-family="Times New Roman,Times,Liberation Serif,serif" font-size="14.00">reward_consume_time</text>
<polygon fill="none" stroke="black" points="613,-219.75 613,-240.75 714,-240.75 714,-219.75 613,-219.75"/>
<text text-anchor="start" x="651.12" y="-224.45" font-family="Times New Roman,Times,Liberation Serif,serif" font-size="14.00">float</text>
<polygon fill="none" stroke="black" points="394,-198.75 394,-219.75 613,-219.75 613,-198.75 394,-198.75"/>
<text text-anchor="start" x="451.38" y="-203.45" font-family="Times New Roman,Times,Liberation Serif,serif" font-size="14.00">max_trial_duration</text>
<polygon fill="none" stroke="black" points="613,-198.75 613,-219.75 714,-219.75 714,-198.75 613,-198.75"/>
<text text-anchor="start" x="651.12" y="-203.45" font-family="Times New Roman,Times,Liberation Serif,serif" font-size="14.00">float</text>
<polygon fill="none" stroke="black" points="394,-177.75 394,-198.75 613,-198.75 613,-177.75 394,-177.75"/>
<text text-anchor="start" x="449.88" y="-182.45" font-family="Times New Roman,Times,Liberation Serif,serif" font-size="14.00">far_position_offset</text>
<polygon fill="none" stroke="black" points="613,-177.75 613,-198.75 714,-198.75 714,-177.75 613,-177.75"/>
<text text-anchor="start" x="651.12" y="-182.45" font-family="Times New Roman,Times,Liberation Serif,serif" font-size="14.00">float</text>
<polygon fill="none" stroke="black" points="394,-156.75 394,-177.75 613,-177.75 613,-156.75 394,-156.75"/>
<text text-anchor="start" x="427.75" y="-161.45" font-family="Times New Roman,Times,Liberation Serif,serif" font-size="14.00">manipulator_reset_position</text>
<polygon fill="none" stroke="black" points="613,-156.75 613,-177.75 714,-177.75 714,-156.75 613,-156.75"/>
<text text-anchor="start" x="641.75" y="-161.45" font-family="Times New Roman,Times,Liberation Serif,serif" font-size="14.00">Point3d</text>
<polygon fill="none" stroke="black" points="394,-135.75 394,-156.75 613,-156.75 613,-135.75 394,-135.75"/>
<text text-anchor="start" x="446.88" y="-140.45" font-family="Times New Roman,Times,Liberation Serif,serif" font-size="14.00">bci_passive_control</text>
<polygon fill="none" stroke="black" points="613,-135.75 613,-156.75 714,-156.75 714,-135.75 613,-135.75"/>
<text text-anchor="start" x="615.88" y="-140.45" font-family="Times New Roman,Times,Liberation Serif,serif" font-size="14.00">SignalProcessing</text>
<polygon fill="none" stroke="black" points="394,-114.75 394,-135.75 613,-135.75 613,-114.75 394,-114.75"/>
<text text-anchor="start" x="415.75" y="-119.45" font-family="Times New Roman,Times,Liberation Serif,serif" font-size="14.00">no_movement_passive_control</text>
<polygon fill="none" stroke="black" points="613,-114.75 613,-135.75 714,-135.75 714,-114.75 613,-114.75"/>
<text text-anchor="start" x="615.88" y="-119.45" font-family="Times New Roman,Times,Liberation Serif,serif" font-size="14.00">SignalProcessing</text>
<polygon fill="none" stroke="black" points="394,-93.75 394,-114.75 613,-114.75 613,-93.75 394,-93.75"/>
<text text-anchor="start" x="451.38" y="-98.45" font-family="Times New Roman,Times,Liberation Serif,serif" font-size="14.00">bci_active_control</text>
<polygon fill="none" stroke="black" points="613,-93.75 613,-114.75 714,-114.75 714,-93.75 613,-93.75"/>
<text text-anchor="start" x="615.88" y="-98.45" font-family="Times New Roman,Times,Liberation Serif,serif" font-size="14.00">SignalProcessing</text>
<polygon fill="none" stroke="black" points="394,-72.75 394,-93.75 613,-93.75 613,-72.75 394,-72.75"/>
<text text-anchor="start" x="448" y="-77.45" font-family="Times New Roman,Times,Liberation Serif,serif" font-size="14.00">skip_2p_handshake</text>
<polygon fill="none" stroke="black" points="613,-72.75 613,-93.75 714,-93.75 714,-72.75 613,-72.75"/>
<text text-anchor="start" x="650.75" y="-77.45" font-family="Times New Roman,Times,Liberation Serif,serif" font-size="14.00">bool</text>
<polygon fill="none" stroke="black" points="394,-51.75 394,-72.75 613,-72.75 613,-51.75 394,-51.75"/>
<text text-anchor="start" x="439.75" y="-56.45" font-family="Times New Roman,Times,Liberation Serif,serif" font-size="14.00">delay_after_handshake</text>
<polygon fill="none" stroke="black" points="613,-51.75 613,-72.75 714,-72.75 714,-51.75 613,-51.75"/>
<text text-anchor="start" x="651.12" y="-56.45" font-family="Times New Roman,Times,Liberation Serif,serif" font-size="14.00">float</text>
<polygon fill="none" stroke="black" points="394,-30.75 394,-51.75 613,-51.75 613,-30.75 394,-30.75"/>
<text text-anchor="start" x="415" y="-35.45" font-family="Times New Roman,Times,Liberation Serif,serif" font-size="14.00">punish_on_movement_duration</text>
<polygon fill="none" stroke="black" points="613,-30.75 613,-51.75 714,-51.75 714,-30.75 613,-30.75"/>
<text text-anchor="start" x="651.12" y="-35.45" font-family="Times New Roman,Times,Liberation Serif,serif" font-size="14.00">float</text>
</a>
</g>
</g>
<!-- aind_bci_no_movement.task_logic.BciNoMovementTaskLogic&#45;&gt;aind_bci_no_movement.task_logic.BciNoMovementTaskParameters -->
<g id="edge1" class="edge">
<title>aind_bci_no_movement.task_logic.BciNoMovementTaskLogic:e&#45;&gt;aind_bci_no_movement.task_logic.BciNoMovementTaskParameters:w</title>
<path fill="none" stroke="black" d="M295.87,-440.26C331.07,-440.31 345.8,-440.65 379.08,-440.73"/>
<polyline fill="none" stroke="black" points="286,-440.25 291,-440.25"/>
<polyline fill="none" stroke="black" points="291,-440.25 296,-440.26"/>
<polyline fill="none" stroke="black" points="394,-440.75 389,-440.74"/>
<polygon fill="black" stroke="black" points="388.01,-435.74 387.99,-445.74 385.99,-445.74 386.01,-435.74 388.01,-435.74"/>
<polyline fill="none" stroke="black" points="389,-440.74 384,-440.74"/>
<polygon fill="black" stroke="black" points="383.01,-435.74 382.99,-445.74 380.99,-445.73 381.01,-435.73 383.01,-435.74"/>
<polyline fill="none" stroke="black" points="384,-440.74 379,-440.73"/>
</g>
<!-- aind_bci_no_movement.task_logic.Point3d -->
<g id="node3" class="node">
<title>aind_bci_no_movement.task_logic.Point3d</title>
<g id="a_node3"><a xlink:title="aind_bci_no_movement.task_logic.Point3d&#10;&#10;Usage docs: https://docs.pydantic.dev/2.8/concepts/models/&#10;&#10;A base class for creating Pydantic models.&#10;&#10;Attributes:&#10; &#160;&#160;&#160;__class_vars__: The names of classvars defined on the model.&#10; &#160;&#160;&#160;__private_attributes__: Metadata about the private attributes of the model.&#10; &#160;&#160;&#160;__signature__: The signature for instantiating the model.&#10;&#10; &#160;&#160;&#160;__pydantic_complete__: Whether model building is completed, or if there are still undefined fields.&#10; &#160;&#160;&#160;__pydantic_core_schema__: The pydantic&#45;core schema used to build the SchemaValidator and SchemaSerializer.&#10; &#160;&#160;&#160;__pydantic_custom_init__: Whether the model has a custom `__init__` function.&#10; &#160;&#160;&#160;__pydantic_decorators__: Metadata containing the decorators defined on the model.&#10; &#160;&#160;&#160;&#160;&#160;&#160;&#160;This replaces `Model.__validators__` and `Model.__root_validators__` from Pydantic V1.&#10; &#160;&#160;&#160;__pydantic_generic_metadata__: Metadata for generic models; contains data used for a similar purpose to&#10; &#160;&#160;&#160;&#160;&#160;&#160;&#160;__args__, __origin__, __parameters__ in typing&#45;module generics. May eventually be replaced by these.&#10; &#160;&#160;&#160;__pydantic_parent_namespace__: Parent namespace of the model, used for automatic rebuilding of models.&#10; &#160;&#160;&#160;__pydantic_post_init__: The name of the post&#45;init method for the model, if defined.&#10; &#160;&#160;&#160;__pydantic_root_model__: Whether the model is a `RootModel`.&#10; &#160;&#160;&#160;__pydantic_serializer__: The pydantic&#45;core SchemaSerializer used to dump instances of the model.&#10; &#160;&#160;&#160;__pydantic_validator__: The pydantic&#45;core SchemaValidator used to validate instances of the model.&#10;&#10; &#160;&#160;&#160;__pydantic_extra__: An instance attribute with the values of extra fields from validation when&#10; &#160;&#160;&#160;&#160;&#160;&#160;&#160;`model_config[&#39;extra&#39;] == &#39;allow&#39;`.&#10; &#160;&#160;&#160;__pydantic_fields_set__: An instance attribute with the names of fields explicitly set.&#10; &#160;&#160;&#160;__pydantic_private__: Instance attribute with the values of private attributes set on the model instance.&#10;">
<polygon fill="none" stroke="black" points="894.5,-224.75 894.5,-246.75 947.5,-246.75 947.5,-224.75 894.5,-224.75"/>
<text text-anchor="start" x="897.38" y="-231.45" font-family="Times New Roman,Times,Liberation Serif,serif" font-weight="bold" font-size="14.00">Point3d</text>
<polygon fill="none" stroke="black" points="894.5,-203.75 894.5,-224.75 911.5,-224.75 911.5,-203.75 894.5,-203.75"/>
<text text-anchor="start" x="899.62" y="-208.45" font-family="Times New Roman,Times,Liberation Serif,serif" font-size="14.00">x</text>
<polygon fill="none" stroke="black" points="911.5,-203.75 911.5,-224.75 947.5,-224.75 947.5,-203.75 911.5,-203.75"/>
<text text-anchor="start" x="917.12" y="-208.45" font-family="Times New Roman,Times,Liberation Serif,serif" font-size="14.00">float</text>
<polygon fill="none" stroke="black" points="894.5,-182.75 894.5,-203.75 911.5,-203.75 911.5,-182.75 894.5,-182.75"/>
<text text-anchor="start" x="899.62" y="-187.45" font-family="Times New Roman,Times,Liberation Serif,serif" font-size="14.00">y</text>
<polygon fill="none" stroke="black" points="911.5,-182.75 911.5,-203.75 947.5,-203.75 947.5,-182.75 911.5,-182.75"/>
<text text-anchor="start" x="917.12" y="-187.45" font-family="Times New Roman,Times,Liberation Serif,serif" font-size="14.00">float</text>
<polygon fill="none" stroke="black" points="894.5,-161.75 894.5,-182.75 911.5,-182.75 911.5,-161.75 894.5,-161.75"/>
<text text-anchor="start" x="900" y="-166.45" font-family="Times New Roman,Times,Liberation Serif,serif" font-size="14.00">z</text>
<polygon fill="none" stroke="black" points="911.5,-161.75 911.5,-182.75 947.5,-182.75 947.5,-161.75 911.5,-161.75"/>
<text text-anchor="start" x="917.12" y="-166.45" font-family="Times New Roman,Times,Liberation Serif,serif" font-size="14.00">float</text>
</a>
</g>
</g>
<!-- aind_bci_no_movement.task_logic.BciNoMovementTaskParameters&#45;&gt;aind_bci_no_movement.task_logic.Point3d -->
<g id="edge2" class="edge">
<title>aind_bci_no_movement.task_logic.BciNoMovementTaskParameters:e&#45;&gt;aind_bci_no_movement.task_logic.Point3d:w</title>
<path fill="none" stroke="black" d="M723.66,-167.56C795.41,-172.19 809.78,-228.07 878.91,-235.04"/>
<polyline fill="none" stroke="black" points="714,-167.25 719,-167.41"/>
<polyline fill="none" stroke="black" points="719,-167.41 724,-167.57"/>
<polyline fill="none" stroke="black" points="893.5,-235.75 888.51,-235.51"/>
<polygon fill="black" stroke="black" points="887.75,-230.46 887.26,-240.45 885.27,-240.35 885.75,-230.37 887.75,-230.46"/>
<polyline fill="none" stroke="black" points="888.51,-235.51 883.51,-235.26"/>
<polygon fill="black" stroke="black" points="882.76,-230.22 882.27,-240.21 880.27,-240.11 880.76,-230.12 882.76,-230.22"/>
<polyline fill="none" stroke="black" points="883.51,-235.26 878.52,-235.02"/>
</g>
<!-- aind_bci_no_movement.task_logic.SignalProcessing -->
<g id="node4" class="node">
<title>aind_bci_no_movement.task_logic.SignalProcessing</title>
<g id="a_node4"><a xlink:title="aind_bci_no_movement.task_logic.SignalProcessing&#10;&#10;Usage docs: https://docs.pydantic.dev/2.8/concepts/models/&#10;&#10;A base class for creating Pydantic models.&#10;&#10;Attributes:&#10; &#160;&#160;&#160;__class_vars__: The names of classvars defined on the model.&#10; &#160;&#160;&#160;__private_attributes__: Metadata about the private attributes of the model.&#10; &#160;&#160;&#160;__signature__: The signature for instantiating the model.&#10;&#10; &#160;&#160;&#160;__pydantic_complete__: Whether model building is completed, or if there are still undefined fields.&#10; &#160;&#160;&#160;__pydantic_core_schema__: The pydantic&#45;core schema used to build the SchemaValidator and SchemaSerializer.&#10; &#160;&#160;&#160;__pydantic_custom_init__: Whether the model has a custom `__init__` function.&#10; &#160;&#160;&#160;__pydantic_decorators__: Metadata containing the decorators defined on the model.&#10; &#160;&#160;&#160;&#160;&#160;&#160;&#160;This replaces `Model.__validators__` and `Model.__root_validators__` from Pydantic V1.&#10; &#160;&#160;&#160;__pydantic_generic_metadata__: Metadata for generic models; contains data used for a similar purpose to&#10; &#160;&#160;&#160;&#160;&#160;&#160;&#160;__args__, __origin__, __parameters__ in typing&#45;module generics. May eventually be replaced by these.&#10; &#160;&#160;&#160;__pydantic_parent_namespace__: Parent namespace of the model, used for automatic rebuilding of models.&#10; &#160;&#160;&#160;__pydantic_post_init__: The name of the post&#45;init method for the model, if defined.&#10; &#160;&#160;&#160;__pydantic_root_model__: Whether the model is a `RootModel`.&#10; &#160;&#160;&#160;__pydantic_serializer__: The pydantic&#45;core SchemaSerializer used to dump instances of the model.&#10; &#160;&#160;&#160;__pydantic_validator__: The pydantic&#45;core SchemaValidator used to validate instances of the model.&#10;&#10; &#160;&#160;&#160;__pydantic_extra__: An instance attribute with the values of extra fields from validation when&#10; &#160;&#160;&#160;&#160;&#160;&#160;&#160;`model_config[&#39;extra&#39;] == &#39;allow&#39;`.&#10; &#160;&#160;&#160;__pydantic_fields_set__: An instance attribute with the names of fields explicitly set.&#10; &#160;&#160;&#160;__pydantic_private__: Instance attribute with the values of private attributes set on the model instance.&#10;">
<polygon fill="none" stroke="black" points="822,-103.25 822,-125.25 1020,-125.25 1020,-103.25 822,-103.25"/>
<text text-anchor="start" x="868.5" y="-109.95" font-family="Times New Roman,Times,Liberation Serif,serif" font-weight="bold" font-size="14.00">SignalProcessing</text>
<polygon fill="none" stroke="black" points="822,-82.25 822,-103.25 933,-103.25 933,-82.25 822,-82.25"/>
<text text-anchor="start" x="825.75" y="-86.95" font-family="Times New Roman,Times,Liberation Serif,serif" font-size="14.00">baseline_threshold</text>
<polygon fill="none" stroke="black" points="933,-82.25 933,-103.25 1020,-103.25 1020,-82.25 933,-82.25"/>
<text text-anchor="start" x="964.12" y="-86.95" font-family="Times New Roman,Times,Liberation Serif,serif" font-size="14.00">float</text>
<polygon fill="none" stroke="black" points="822,-61.25 822,-82.25 933,-82.25 933,-61.25 822,-61.25"/>
<text text-anchor="start" x="866.25" y="-65.95" font-family="Times New Roman,Times,Liberation Serif,serif" font-size="14.00">gain</text>
<polygon fill="none" stroke="black" points="933,-61.25 933,-82.25 1020,-82.25 1020,-61.25 933,-61.25"/>
<text text-anchor="start" x="964.12" y="-65.95" font-family="Times New Roman,Times,Liberation Serif,serif" font-size="14.00">float</text>
<polygon fill="none" stroke="black" points="822,-40.25 822,-61.25 933,-61.25 933,-40.25 822,-40.25"/>
<text text-anchor="start" x="826.5" y="-44.95" font-family="Times New Roman,Times,Liberation Serif,serif" font-size="14.00">low_pass_cut_off</text>
<polygon fill="none" stroke="black" points="933,-40.25 933,-61.25 1020,-61.25 1020,-40.25 933,-40.25"/>
<text text-anchor="start" x="935.62" y="-44.95" font-family="Times New Roman,Times,Liberation Serif,serif" font-size="14.00">Optional[float]</text>
<polygon fill="none" stroke="black" points="822,-19.25 822,-40.25 933,-40.25 933,-19.25 822,-19.25"/>
<text text-anchor="start" x="825" y="-23.95" font-family="Times New Roman,Times,Liberation Serif,serif" font-size="14.00">high_pass_cut_off</text>
<polygon fill="none" stroke="black" points="933,-19.25 933,-40.25 1020,-40.25 1020,-19.25 933,-19.25"/>
<text text-anchor="start" x="935.62" y="-23.95" font-family="Times New Roman,Times,Liberation Serif,serif" font-size="14.00">Optional[float]</text>
</a>
</g>
</g>
<!-- aind_bci_no_movement.task_logic.BciNoMovementTaskParameters&#45;&gt;aind_bci_no_movement.task_logic.SignalProcessing -->
<g id="edge3" class="edge">
<title>aind_bci_no_movement.task_logic.BciNoMovementTaskParameters:e&#45;&gt;aind_bci_no_movement.task_logic.SignalProcessing:w</title>
<path fill="none" stroke="black" d="M723.9,-104.4C759.21,-105.49 773.68,-112.27 807.04,-113.9"/>
<polyline fill="none" stroke="black" points="714,-104.25 719,-104.33"/>
<polyline fill="none" stroke="black" points="719,-104.33 724,-104.4"/>
<polyline fill="none" stroke="black" points="822,-114.25 817,-114.13"/>
<polygon fill="black" stroke="black" points="816.12,-109.11 815.88,-119.11 813.89,-119.06 814.12,-109.06 816.12,-109.11"/>
<polyline fill="none" stroke="black" points="817,-114.13 812,-114.02"/>
<polygon fill="black" stroke="black" points="811.12,-108.99 810.89,-118.99 808.89,-118.94 809.12,-108.95 811.12,-108.99"/>
<polyline fill="none" stroke="black" points="812,-114.02 807,-113.9"/>
</g>
<!-- aind_bci_no_movement.task_logic.BciNoMovementTaskParameters&#45;&gt;aind_bci_no_movement.task_logic.SignalProcessing -->
<g id="edge4" class="edge">
<title>aind_bci_no_movement.task_logic.BciNoMovementTaskParameters:e&#45;&gt;aind_bci_no_movement.task_logic.SignalProcessing:w</title>
<path fill="none" stroke="black" d="M723.96,-145.8C760.69,-142.35 772.77,-120.21 807.49,-115.24"/>
<polyline fill="none" stroke="black" points="714,-146.25 718.99,-146.02"/>
<polyline fill="none" stroke="black" points="718.99,-146.02 723.99,-145.8"/>
<polyline fill="none" stroke="black" points="822,-114.25 817.01,-114.59"/>
<polygon fill="black" stroke="black" points="815.67,-109.67 816.35,-119.65 814.36,-119.78 813.68,-109.81 815.67,-109.67"/>
<polyline fill="none" stroke="black" points="817.01,-114.59 812.02,-114.93"/>
<polygon fill="black" stroke="black" points="810.69,-110.01 811.37,-119.99 809.37,-120.12 808.69,-110.15 810.69,-110.01"/>
<polyline fill="none" stroke="black" points="812.02,-114.93 807.03,-115.27"/>
</g>
<!-- aind_bci_no_movement.task_logic.BciNoMovementTaskParameters&#45;&gt;aind_bci_no_movement.task_logic.SignalProcessing -->
<g id="edge5" class="edge">
<title>aind_bci_no_movement.task_logic.BciNoMovementTaskParameters:e&#45;&gt;aind_bci_no_movement.task_logic.SignalProcessing:w</title>
<path fill="none" stroke="black" d="M723.91,-125.09C759.24,-123.88 773.66,-116.42 807.03,-114.64"/>
<polyline fill="none" stroke="black" points="714,-125.25 719,-125.17"/>
<polyline fill="none" stroke="black" points="719,-125.17 724,-125.08"/>
<polyline fill="none" stroke="black" points="822,-114.25 817,-114.38"/>
<polygon fill="black" stroke="black" points="815.87,-109.41 816.13,-119.4 814.13,-119.45 813.87,-109.46 815.87,-109.41"/>
<polyline fill="none" stroke="black" points="817,-114.38 812,-114.51"/>
<polygon fill="black" stroke="black" points="810.87,-109.53 811.13,-119.53 809.13,-119.58 808.88,-109.59 810.87,-109.53"/>
<polyline fill="none" stroke="black" points="812,-114.51 807,-114.64"/>
</g>
</g>
</svg>
