<?xml version="1.0" encoding="UTF-8" standalone="no"?>
<!DOCTYPE svg PUBLIC "-//W3C//DTD SVG 1.1//EN"
 "http://www.w3.org/Graphics/SVG/1.1/DTD/svg11.dtd">
<!-- Generated by graphviz version 2.43.0 (0)
 -->
<!-- Title: Entity Relationship Diagram created by erdantic Pages: 1 -->
<svg width="1015pt" height="543pt"
 viewBox="0.00 0.00 1015.00 542.50" xmlns="http://www.w3.org/2000/svg" xmlns:xlink="http://www.w3.org/1999/xlink">
<g id="graph0" class="graph" transform="scale(1 1) rotate(0) translate(4 538.5)">
<title>Entity Relationship Diagram created by erdantic</title>
<polygon fill="white" stroke="transparent" points="-4,4 -4,-538.5 1011,-538.5 1011,4 -4,4"/>
<text text-anchor="middle" x="503.5" y="-6.8" font-family="Times New Roman,Times,Liberation Serif,serif" font-size="9.00" fill="#a8a8a8">Created by erdantic v1.0.5 &lt;https://github.com/drivendataorg/erdantic&gt;</text>
<!-- aind_bci_no_movement.task_logic.BciNoMovementTaskLogic -->
<g id="node1" class="node">
<title>aind_bci_no_movement.task_logic.BciNoMovementTaskLogic</title>
<g id="a_node1"><a xlink:title="aind_bci_no_movement.task_logic.BciNoMovementTaskLogic&#10;&#10;Base Task Primitive.&#10;Holds Task metadata and parameters.&#10;">
<polygon fill="none" stroke="black" points="0.5,-513.5 0.5,-534.5 283.5,-534.5 283.5,-513.5 0.5,-513.5"/>
<text text-anchor="start" x="62.5" y="-521.3" font-family="Times New Roman,Times,Liberation Serif,serif" font-weight="bold" font-size="14.00">BciNoMovementTaskLogic</text>
<polygon fill="none" stroke="black" points="0.5,-492.5 0.5,-513.5 95.5,-513.5 95.5,-492.5 0.5,-492.5"/>
<text text-anchor="start" x="32.5" y="-499.3" font-family="Times New Roman,Times,Liberation Serif,serif" font-size="14.00">name</text>
<polygon fill="none" stroke="black" points="95.5,-492.5 95.5,-513.5 283.5,-513.5 283.5,-492.5 95.5,-492.5"/>
<text text-anchor="start" x="182.5" y="-499.3" font-family="Times New Roman,Times,Liberation Serif,serif" font-size="14.00">str</text>
<polygon fill="none" stroke="black" points="0.5,-471.5 0.5,-492.5 95.5,-492.5 95.5,-471.5 0.5,-471.5"/>
<text text-anchor="start" x="17.5" y="-478.3" font-family="Times New Roman,Times,Liberation Serif,serif" font-size="14.00">description</text>
<polygon fill="none" stroke="black" points="95.5,-471.5 95.5,-492.5 283.5,-492.5 283.5,-471.5 95.5,-471.5"/>
<text text-anchor="start" x="182.5" y="-478.3" font-family="Times New Roman,Times,Liberation Serif,serif" font-size="14.00">str</text>
<polygon fill="none" stroke="black" points="0.5,-450.5 0.5,-471.5 95.5,-471.5 95.5,-450.5 0.5,-450.5"/>
<text text-anchor="start" x="3.5" y="-457.3" font-family="Times New Roman,Times,Liberation Serif,serif" font-size="14.00">task_parameters</text>
<polygon fill="none" stroke="black" points="95.5,-450.5 95.5,-471.5 283.5,-471.5 283.5,-450.5 95.5,-450.5"/>
<text text-anchor="start" x="98.5" y="-457.3" font-family="Times New Roman,Times,Liberation Serif,serif" font-size="14.00">BciNoMovementTaskParameters</text>
<polygon fill="none" stroke="black" points="0.5,-429.5 0.5,-450.5 95.5,-450.5 95.5,-429.5 0.5,-429.5"/>
<text text-anchor="start" x="28" y="-436.3" font-family="Times New Roman,Times,Liberation Serif,serif" font-size="14.00">version</text>
<polygon fill="none" stroke="black" points="95.5,-429.5 95.5,-450.5 283.5,-450.5 283.5,-429.5 95.5,-429.5"/>
<text text-anchor="start" x="150.5" y="-436.3" font-family="Times New Roman,Times,Liberation Serif,serif" font-size="14.00">Literal[&#39;0.0.1&#39;]</text>
<polygon fill="none" stroke="black" points="0.5,-408.5 0.5,-429.5 95.5,-429.5 95.5,-408.5 0.5,-408.5"/>
<text text-anchor="start" x="15.5" y="-415.3" font-family="Times New Roman,Times,Liberation Serif,serif" font-size="14.00">stage_name</text>
<polygon fill="none" stroke="black" points="95.5,-408.5 95.5,-429.5 283.5,-429.5 283.5,-408.5 95.5,-408.5"/>
<text text-anchor="start" x="154.5" y="-415.3" font-family="Times New Roman,Times,Liberation Serif,serif" font-size="14.00">Optional[str]</text>
</a>
</g>
</g>
<!-- aind_bci_no_movement.task_logic.BciNoMovementTaskParameters -->
<g id="node2" class="node">
<title>aind_bci_no_movement.task_logic.BciNoMovementTaskParameters</title>
<g id="a_node2"><a xlink:title="aind_bci_no_movement.task_logic.BciNoMovementTaskParameters&#10;&#10;Set of parameters associated with a subject task.&#10;Subclass with Task Parameters.&#10;">
<polygon fill="none" stroke="black" points="391,-449.5 391,-470.5 703,-470.5 703,-449.5 391,-449.5"/>
<text text-anchor="start" x="450" y="-457.3" font-family="Times New Roman,Times,Liberation Serif,serif" font-weight="bold" font-size="14.00">BciNoMovementTaskParameters</text>
<polygon fill="none" stroke="black" points="391,-428.5 391,-449.5 603,-449.5 603,-428.5 391,-428.5"/>
<text text-anchor="start" x="472.5" y="-435.3" font-family="Times New Roman,Times,Liberation Serif,serif" font-size="14.00">rng_seed</text>
<polygon fill="none" stroke="black" points="603,-428.5 603,-449.5 703,-449.5 703,-428.5 603,-428.5"/>
<text text-anchor="start" x="612" y="-435.3" font-family="Times New Roman,Times,Liberation Serif,serif" font-size="14.00">Optional[float]</text>
<polygon fill="none" stroke="black" points="391,-407.5 391,-428.5 603,-428.5 603,-407.5 391,-407.5"/>
<text text-anchor="start" x="396" y="-414.3" font-family="Times New Roman,Times,Liberation Serif,serif" font-size="14.00">aind_behavior_services_pkg_version</text>
<polygon fill="none" stroke="black" points="603,-407.5 603,-428.5 703,-428.5 703,-407.5 603,-407.5"/>
<text text-anchor="start" x="614" y="-414.3" font-family="Times New Roman,Times,Liberation Serif,serif" font-size="14.00">Literal[&#39;0.8.1&#39;]</text>
<polygon fill="none" stroke="black" points="391,-386.5 391,-407.5 603,-407.5 603,-386.5 391,-386.5"/>
<text text-anchor="start" x="450" y="-393.3" font-family="Times New Roman,Times,Liberation Serif,serif" font-size="14.00">valve_open_time</text>
<polygon fill="none" stroke="black" points="603,-386.5 603,-407.5 703,-407.5 703,-386.5 603,-386.5"/>
<text text-anchor="start" x="640.5" y="-393.3" font-family="Times New Roman,Times,Liberation Serif,serif" font-size="14.00">float</text>
<polygon fill="none" stroke="black" points="391,-365.5 391,-386.5 603,-386.5 603,-365.5 391,-365.5"/>
<text text-anchor="start" x="434.5" y="-372.3" font-family="Times New Roman,Times,Liberation Serif,serif" font-size="14.00">wait_microscope_time</text>
<polygon fill="none" stroke="black" points="603,-365.5 603,-386.5 703,-386.5 703,-365.5 603,-365.5"/>
<text text-anchor="start" x="640.5" y="-372.3" font-family="Times New Roman,Times,Liberation Serif,serif" font-size="14.00">float</text>
<polygon fill="none" stroke="black" points="391,-344.5 391,-365.5 603,-365.5 603,-344.5 391,-344.5"/>
<text text-anchor="start" x="447" y="-351.3" font-family="Times New Roman,Times,Liberation Serif,serif" font-size="14.00">low_activity_time</text>
<polygon fill="none" stroke="black" points="603,-344.5 603,-365.5 703,-365.5 703,-344.5 603,-344.5"/>
<text text-anchor="start" x="640.5" y="-351.3" font-family="Times New Roman,Times,Liberation Serif,serif" font-size="14.00">float</text>
<polygon fill="none" stroke="black" points="391,-323.5 391,-344.5 603,-344.5 603,-323.5 391,-323.5"/>
<text text-anchor="start" x="444" y="-330.3" font-family="Times New Roman,Times,Liberation Serif,serif" font-size="14.00">lick_response_time</text>
<polygon fill="none" stroke="black" points="603,-323.5 603,-344.5 703,-344.5 703,-323.5 603,-323.5"/>
<text text-anchor="start" x="640.5" y="-330.3" font-family="Times New Roman,Times,Liberation Serif,serif" font-size="14.00">float</text>
<polygon fill="none" stroke="black" points="391,-302.5 391,-323.5 603,-323.5 603,-302.5 391,-302.5"/>
<text text-anchor="start" x="460.5" y="-309.3" font-family="Times New Roman,Times,Liberation Serif,serif" font-size="14.00">wait_for_lick</text>
<polygon fill="none" stroke="black" points="603,-302.5 603,-323.5 703,-323.5 703,-302.5 603,-302.5"/>
<text text-anchor="start" x="640.5" y="-309.3" font-family="Times New Roman,Times,Liberation Serif,serif" font-size="14.00">bool</text>
<polygon fill="none" stroke="black" points="391,-281.5 391,-302.5 603,-302.5 603,-281.5 391,-281.5"/>
<text text-anchor="start" x="394" y="-288.3" font-family="Times New Roman,Times,Liberation Serif,serif" font-size="14.00">enable_sound_on_reward_zone_entry</text>
<polygon fill="none" stroke="black" points="603,-281.5 603,-302.5 703,-302.5 703,-281.5 603,-281.5"/>
<text text-anchor="start" x="640.5" y="-288.3" font-family="Times New Roman,Times,Liberation Serif,serif" font-size="14.00">bool</text>
<polygon fill="none" stroke="black" points="391,-260.5 391,-281.5 603,-281.5 603,-260.5 391,-260.5"/>
<text text-anchor="start" x="406.5" y="-267.3" font-family="Times New Roman,Times,Liberation Serif,serif" font-size="14.00">no_movement_time_before_trial</text>
<polygon fill="none" stroke="black" points="603,-260.5 603,-281.5 703,-281.5 703,-260.5 603,-260.5"/>
<text text-anchor="start" x="640.5" y="-267.3" font-family="Times New Roman,Times,Liberation Serif,serif" font-size="14.00">float</text>
<polygon fill="none" stroke="black" points="391,-239.5 391,-260.5 603,-260.5 603,-239.5 391,-239.5"/>
<text text-anchor="start" x="446" y="-246.3" font-family="Times New Roman,Times,Liberation Serif,serif" font-size="14.00">inter_trial_interval</text>
<polygon fill="none" stroke="black" points="603,-239.5 603,-260.5 703,-260.5 703,-239.5 603,-239.5"/>
<text text-anchor="start" x="640.5" y="-246.3" font-family="Times New Roman,Times,Liberation Serif,serif" font-size="14.00">float</text>
<polygon fill="none" stroke="black" points="391,-218.5 391,-239.5 603,-239.5 603,-218.5 391,-218.5"/>
<text text-anchor="start" x="434.5" y="-225.3" font-family="Times New Roman,Times,Liberation Serif,serif" font-size="14.00">reward_consume_time</text>
<polygon fill="none" stroke="black" points="603,-218.5 603,-239.5 703,-239.5 703,-218.5 603,-218.5"/>
<text text-anchor="start" x="640.5" y="-225.3" font-family="Times New Roman,Times,Liberation Serif,serif" font-size="14.00">float</text>
<polygon fill="none" stroke="black" points="391,-197.5 391,-218.5 603,-218.5 603,-197.5 391,-197.5"/>
<text text-anchor="start" x="444.5" y="-204.3" font-family="Times New Roman,Times,Liberation Serif,serif" font-size="14.00">max_trial_duration</text>
<polygon fill="none" stroke="black" points="603,-197.5 603,-218.5 703,-218.5 703,-197.5 603,-197.5"/>
<text text-anchor="start" x="640.5" y="-204.3" font-family="Times New Roman,Times,Liberation Serif,serif" font-size="14.00">float</text>
<polygon fill="none" stroke="black" points="391,-176.5 391,-197.5 603,-197.5 603,-176.5 391,-176.5"/>
<text text-anchor="start" x="445.5" y="-183.3" font-family="Times New Roman,Times,Liberation Serif,serif" font-size="14.00">far_position_offset</text>
<polygon fill="none" stroke="black" points="603,-176.5 603,-197.5 703,-197.5 703,-176.5 603,-176.5"/>
<text text-anchor="start" x="640.5" y="-183.3" font-family="Times New Roman,Times,Liberation Serif,serif" font-size="14.00">float</text>
<polygon fill="none" stroke="black" points="391,-155.5 391,-176.5 603,-176.5 603,-155.5 391,-155.5"/>
<text text-anchor="start" x="422.5" y="-162.3" font-family="Times New Roman,Times,Liberation Serif,serif" font-size="14.00">manipulator_reset_position</text>
<polygon fill="none" stroke="black" points="603,-155.5 603,-176.5 703,-176.5 703,-155.5 603,-155.5"/>
<text text-anchor="start" x="631.5" y="-162.3" font-family="Times New Roman,Times,Liberation Serif,serif" font-size="14.00">Point3d</text>
<polygon fill="none" stroke="black" points="391,-134.5 391,-155.5 603,-155.5 603,-134.5 391,-134.5"/>
<text text-anchor="start" x="442.5" y="-141.3" font-family="Times New Roman,Times,Liberation Serif,serif" font-size="14.00">bci_passive_control</text>
<polygon fill="none" stroke="black" points="603,-134.5 603,-155.5 703,-155.5 703,-134.5 603,-134.5"/>
<text text-anchor="start" x="606" y="-141.3" font-family="Times New Roman,Times,Liberation Serif,serif" font-size="14.00">SignalProcessing</text>
<polygon fill="none" stroke="black" points="391,-113.5 391,-134.5 603,-134.5 603,-113.5 391,-113.5"/>
<text text-anchor="start" x="411.5" y="-120.3" font-family="Times New Roman,Times,Liberation Serif,serif" font-size="14.00">no_movement_passive_control</text>
<polygon fill="none" stroke="black" points="603,-113.5 603,-134.5 703,-134.5 703,-113.5 603,-113.5"/>
<text text-anchor="start" x="606" y="-120.3" font-family="Times New Roman,Times,Liberation Serif,serif" font-size="14.00">SignalProcessing</text>
<polygon fill="none" stroke="black" points="391,-92.5 391,-113.5 603,-113.5 603,-92.5 391,-92.5"/>
<text text-anchor="start" x="446.5" y="-99.3" font-family="Times New Roman,Times,Liberation Serif,serif" font-size="14.00">bci_active_control</text>
<polygon fill="none" stroke="black" points="603,-92.5 603,-113.5 703,-113.5 703,-92.5 603,-92.5"/>
<text text-anchor="start" x="606" y="-99.3" font-family="Times New Roman,Times,Liberation Serif,serif" font-size="14.00">SignalProcessing</text>
<polygon fill="none" stroke="black" points="391,-71.5 391,-92.5 603,-92.5 603,-71.5 391,-71.5"/>
<text text-anchor="start" x="443.5" y="-78.3" font-family="Times New Roman,Times,Liberation Serif,serif" font-size="14.00">skip_2p_handshake</text>
<polygon fill="none" stroke="black" points="603,-71.5 603,-92.5 703,-92.5 703,-71.5 603,-71.5"/>
<text text-anchor="start" x="640.5" y="-78.3" font-family="Times New Roman,Times,Liberation Serif,serif" font-size="14.00">bool</text>
<polygon fill="none" stroke="black" points="391,-50.5 391,-71.5 603,-71.5 603,-50.5 391,-50.5"/>
<text text-anchor="start" x="434.5" y="-57.3" font-family="Times New Roman,Times,Liberation Serif,serif" font-size="14.00">delay_after_handshake</text>
<polygon fill="none" stroke="black" points="603,-50.5 603,-71.5 703,-71.5 703,-50.5 603,-50.5"/>
<text text-anchor="start" x="640.5" y="-57.3" font-family="Times New Roman,Times,Liberation Serif,serif" font-size="14.00">float</text>
<polygon fill="none" stroke="black" points="391,-29.5 391,-50.5 603,-50.5 603,-29.5 391,-29.5"/>
<text text-anchor="start" x="410" y="-36.3" font-family="Times New Roman,Times,Liberation Serif,serif" font-size="14.00">punish_on_movement_duration</text>
<polygon fill="none" stroke="black" points="603,-29.5 603,-50.5 703,-50.5 703,-29.5 603,-29.5"/>
<text text-anchor="start" x="640.5" y="-36.3" font-family="Times New Roman,Times,Liberation Serif,serif" font-size="14.00">float</text>
</a>
</g>
</g>
<!-- aind_bci_no_movement.task_logic.BciNoMovementTaskLogic&#45;&gt;aind_bci_no_movement.task_logic.BciNoMovementTaskParameters -->
<g id="edge1" class="edge">
<title>aind_bci_no_movement.task_logic.BciNoMovementTaskLogic:e&#45;&gt;aind_bci_no_movement.task_logic.BciNoMovementTaskParameters:w</title>
<path fill="none" stroke="black" d="M293.12,-460.5C328,-460.5 342.76,-460.5 375.67,-460.5"/>
<polyline fill="none" stroke="black" points="283,-460.5 288,-460.5 "/>
<polyline fill="none" stroke="black" points="288,-460.5 293,-460.5 "/>
<polyline fill="none" stroke="black" points="391,-460.5 386,-460.5 "/>
<polygon fill="black" stroke="black" points="385,-455.5 385,-465.5 383,-465.5 383,-455.5 385,-455.5"/>
<polyline fill="none" stroke="black" points="386,-460.5 381,-460.5 "/>
<polygon fill="black" stroke="black" points="380,-455.5 380,-465.5 378,-465.5 378,-455.5 380,-455.5"/>
<polyline fill="none" stroke="black" points="381,-460.5 376,-460.5 "/>
</g>
<!-- aind_bci_no_movement.task_logic.Point3d -->
<g id="node3" class="node">
<title>aind_bci_no_movement.task_logic.Point3d</title>
<g id="a_node3"><a xlink:title="aind_bci_no_movement.task_logic.Point3d&#10;&#10;Usage docs: https://docs.pydantic.dev/2.9/concepts/models/&#10;&#10;A base class for creating Pydantic models.&#10;&#10;Attributes:&#10; &#160;&#160;&#160;__class_vars__: The names of the class variables defined on the model.&#10; &#160;&#160;&#160;__private_attributes__: Metadata about the private attributes of the model.&#10; &#160;&#160;&#160;__signature__: The synthesized `__init__` [`Signature`][inspect.Signature] of the model.&#10;&#10; &#160;&#160;&#160;__pydantic_complete__: Whether model building is completed, or if there are still undefined fields.&#10; &#160;&#160;&#160;__pydantic_core_schema__: The core schema of the model.&#10; &#160;&#160;&#160;__pydantic_custom_init__: Whether the model has a custom `__init__` function.&#10; &#160;&#160;&#160;__pydantic_decorators__: Metadata containing the decorators defined on the model.&#10; &#160;&#160;&#160;&#160;&#160;&#160;&#160;This replaces `Model.__validators__` and `Model.__root_validators__` from Pydantic V1.&#10; &#160;&#160;&#160;__pydantic_generic_metadata__: Metadata for generic models; contains data used for a similar purpose to&#10; &#160;&#160;&#160;&#160;&#160;&#160;&#160;__args__, __origin__, __parameters__ in typing&#45;module generics. May eventually be replaced by these.&#10; &#160;&#160;&#160;__pydantic_parent_namespace__: Parent namespace of the model, used for automatic rebuilding of models.&#10; &#160;&#160;&#160;__pydantic_post_init__: The name of the post&#45;init method for the model, if defined.&#10; &#160;&#160;&#160;__pydantic_root_model__: Whether the model is a [`RootModel`][pydantic.root_model.RootModel].&#10; &#160;&#160;&#160;__pydantic_serializer__: The `pydantic&#45;core` `SchemaSerializer` used to dump instances of the model.&#10; &#160;&#160;&#160;__pydantic_validator__: The `pydantic&#45;core` `SchemaValidator` used to validate instances of the model.&#10;&#10; &#160;&#160;&#160;__pydantic_extra__: A dictionary containing extra values, if [`extra`][pydantic.config.ConfigDict.extra]&#10; &#160;&#160;&#160;&#160;&#160;&#160;&#160;is set to `&#39;allow&#39;`.&#10; &#160;&#160;&#160;__pydantic_fields_set__: The names of fields explicitly set during instantiation.&#10; &#160;&#160;&#160;__pydantic_private__: Values of private attributes set on the model instance.&#10;">
<polygon fill="none" stroke="black" points="883,-222.5 883,-243.5 935,-243.5 935,-222.5 883,-222.5"/>
<text text-anchor="start" x="886" y="-230.3" font-family="Times New Roman,Times,Liberation Serif,serif" font-weight="bold" font-size="14.00">Point3d</text>
<polygon fill="none" stroke="black" points="883,-201.5 883,-222.5 900,-222.5 900,-201.5 883,-201.5"/>
<text text-anchor="start" x="888" y="-208.3" font-family="Times New Roman,Times,Liberation Serif,serif" font-size="14.00">x</text>
<polygon fill="none" stroke="black" points="900,-201.5 900,-222.5 935,-222.5 935,-201.5 900,-201.5"/>
<text text-anchor="start" x="905" y="-208.3" font-family="Times New Roman,Times,Liberation Serif,serif" font-size="14.00">float</text>
<polygon fill="none" stroke="black" points="883,-180.5 883,-201.5 900,-201.5 900,-180.5 883,-180.5"/>
<text text-anchor="start" x="888" y="-187.3" font-family="Times New Roman,Times,Liberation Serif,serif" font-size="14.00">y</text>
<polygon fill="none" stroke="black" points="900,-180.5 900,-201.5 935,-201.5 935,-180.5 900,-180.5"/>
<text text-anchor="start" x="905" y="-187.3" font-family="Times New Roman,Times,Liberation Serif,serif" font-size="14.00">float</text>
<polygon fill="none" stroke="black" points="883,-159.5 883,-180.5 900,-180.5 900,-159.5 883,-159.5"/>
<text text-anchor="start" x="888" y="-166.3" font-family="Times New Roman,Times,Liberation Serif,serif" font-size="14.00">z</text>
<polygon fill="none" stroke="black" points="900,-159.5 900,-180.5 935,-180.5 935,-159.5 900,-159.5"/>
<text text-anchor="start" x="905" y="-166.3" font-family="Times New Roman,Times,Liberation Serif,serif" font-size="14.00">float</text>
</a>
</g>
</g>
<!-- aind_bci_no_movement.task_logic.BciNoMovementTaskParameters&#45;&gt;aind_bci_no_movement.task_logic.Point3d -->
<g id="edge2" class="edge">
<title>aind_bci_no_movement.task_logic.BciNoMovementTaskParameters:e&#45;&gt;aind_bci_no_movement.task_logic.Point3d:w</title>
<path fill="none" stroke="black" d="M713.1,-165.83C783.92,-170.62 798.59,-225.45 866.63,-232.71"/>
<polyline fill="none" stroke="black" points="703,-165.5 708,-165.67 "/>
<polyline fill="none" stroke="black" points="708,-165.67 712.99,-165.83 "/>
<polyline fill="none" stroke="black" points="882,-233.5 877.01,-233.24 "/>
<polygon fill="black" stroke="black" points="876.27,-228.2 875.75,-238.18 873.75,-238.08 874.27,-228.09 876.27,-228.2"/>
<polyline fill="none" stroke="black" points="877.01,-233.24 872.01,-232.99 "/>
<polygon fill="black" stroke="black" points="871.27,-227.94 870.76,-237.93 868.76,-237.82 869.27,-227.84 871.27,-227.94"/>
<polyline fill="none" stroke="black" points="872.01,-232.99 867.02,-232.73 "/>
</g>
<!-- aind_bci_no_movement.task_logic.SignalProcessing -->
<g id="node4" class="node">
<title>aind_bci_no_movement.task_logic.SignalProcessing</title>
<g id="a_node4"><a xlink:title="aind_bci_no_movement.task_logic.SignalProcessing&#10;&#10;Usage docs: https://docs.pydantic.dev/2.9/concepts/models/&#10;&#10;A base class for creating Pydantic models.&#10;&#10;Attributes:&#10; &#160;&#160;&#160;__class_vars__: The names of the class variables defined on the model.&#10; &#160;&#160;&#160;__private_attributes__: Metadata about the private attributes of the model.&#10; &#160;&#160;&#160;__signature__: The synthesized `__init__` [`Signature`][inspect.Signature] of the model.&#10;&#10; &#160;&#160;&#160;__pydantic_complete__: Whether model building is completed, or if there are still undefined fields.&#10; &#160;&#160;&#160;__pydantic_core_schema__: The core schema of the model.&#10; &#160;&#160;&#160;__pydantic_custom_init__: Whether the model has a custom `__init__` function.&#10; &#160;&#160;&#160;__pydantic_decorators__: Metadata containing the decorators defined on the model.&#10; &#160;&#160;&#160;&#160;&#160;&#160;&#160;This replaces `Model.__validators__` and `Model.__root_validators__` from Pydantic V1.&#10; &#160;&#160;&#160;__pydantic_generic_metadata__: Metadata for generic models; contains data used for a similar purpose to&#10; &#160;&#160;&#160;&#160;&#160;&#160;&#160;__args__, __origin__, __parameters__ in typing&#45;module generics. May eventually be replaced by these.&#10; &#160;&#160;&#160;__pydantic_parent_namespace__: Parent namespace of the model, used for automatic rebuilding of models.&#10; &#160;&#160;&#160;__pydantic_post_init__: The name of the post&#45;init method for the model, if defined.&#10; &#160;&#160;&#160;__pydantic_root_model__: Whether the model is a [`RootModel`][pydantic.root_model.RootModel].&#10; &#160;&#160;&#160;__pydantic_serializer__: The `pydantic&#45;core` `SchemaSerializer` used to dump instances of the model.&#10; &#160;&#160;&#160;__pydantic_validator__: The `pydantic&#45;core` `SchemaValidator` used to validate instances of the model.&#10;&#10; &#160;&#160;&#160;__pydantic_extra__: A dictionary containing extra values, if [`extra`][pydantic.config.ConfigDict.extra]&#10; &#160;&#160;&#160;&#160;&#160;&#160;&#160;is set to `&#39;allow&#39;`.&#10; &#160;&#160;&#160;__pydantic_fields_set__: The names of fields explicitly set during instantiation.&#10; &#160;&#160;&#160;__pydantic_private__: Values of private attributes set on the model instance.&#10;">
<polygon fill="none" stroke="black" points="811,-101.5 811,-122.5 1007,-122.5 1007,-101.5 811,-101.5"/>
<text text-anchor="start" x="860" y="-109.3" font-family="Times New Roman,Times,Liberation Serif,serif" font-weight="bold" font-size="14.00">SignalProcessing</text>
<polygon fill="none" stroke="black" points="811,-80.5 811,-101.5 919,-101.5 919,-80.5 811,-80.5"/>
<text text-anchor="start" x="814" y="-87.3" font-family="Times New Roman,Times,Liberation Serif,serif" font-size="14.00">baseline_threshold</text>
<polygon fill="none" stroke="black" points="919,-80.5 919,-101.5 1007,-101.5 1007,-80.5 919,-80.5"/>
<text text-anchor="start" x="950.5" y="-87.3" font-family="Times New Roman,Times,Liberation Serif,serif" font-size="14.00">float</text>
<polygon fill="none" stroke="black" points="811,-59.5 811,-80.5 919,-80.5 919,-59.5 811,-59.5"/>
<text text-anchor="start" x="853" y="-66.3" font-family="Times New Roman,Times,Liberation Serif,serif" font-size="14.00">gain</text>
<polygon fill="none" stroke="black" points="919,-59.5 919,-80.5 1007,-80.5 1007,-59.5 919,-59.5"/>
<text text-anchor="start" x="950.5" y="-66.3" font-family="Times New Roman,Times,Liberation Serif,serif" font-size="14.00">float</text>
<polygon fill="none" stroke="black" points="811,-38.5 811,-59.5 919,-59.5 919,-38.5 811,-38.5"/>
<text text-anchor="start" x="816.5" y="-45.3" font-family="Times New Roman,Times,Liberation Serif,serif" font-size="14.00">low_pass_cut_off</text>
<polygon fill="none" stroke="black" points="919,-38.5 919,-59.5 1007,-59.5 1007,-38.5 919,-38.5"/>
<text text-anchor="start" x="922" y="-45.3" font-family="Times New Roman,Times,Liberation Serif,serif" font-size="14.00">Optional[float]</text>
<polygon fill="none" stroke="black" points="811,-17.5 811,-38.5 919,-38.5 919,-17.5 811,-17.5"/>
<text text-anchor="start" x="815" y="-24.3" font-family="Times New Roman,Times,Liberation Serif,serif" font-size="14.00">high_pass_cut_off</text>
<polygon fill="none" stroke="black" points="919,-17.5 919,-38.5 1007,-38.5 1007,-17.5 919,-17.5"/>
<text text-anchor="start" x="922" y="-24.3" font-family="Times New Roman,Times,Liberation Serif,serif" font-size="14.00">Optional[float]</text>
</a>
</g>
</g>
<!-- aind_bci_no_movement.task_logic.BciNoMovementTaskParameters&#45;&gt;aind_bci_no_movement.task_logic.SignalProcessing -->
<g id="edge3" class="edge">
<title>aind_bci_no_movement.task_logic.BciNoMovementTaskParameters:e&#45;&gt;aind_bci_no_movement.task_logic.SignalProcessing:w</title>
<path fill="none" stroke="black" d="M713.16,-102.66C748.13,-103.77 762.64,-110.47 795.62,-112.13"/>
<polyline fill="none" stroke="black" points="703,-102.5 708,-102.58 "/>
<polyline fill="none" stroke="black" points="708,-102.58 713,-102.65 "/>
<polyline fill="none" stroke="black" points="811,-112.5 806,-112.38 "/>
<polygon fill="black" stroke="black" points="805.12,-107.36 804.88,-117.35 802.88,-117.31 803.12,-107.31 805.12,-107.36"/>
<polyline fill="none" stroke="black" points="806,-112.38 801,-112.26 "/>
<polygon fill="black" stroke="black" points="800.12,-107.24 799.88,-117.23 797.88,-117.19 798.12,-107.19 800.12,-107.24"/>
<polyline fill="none" stroke="black" points="801,-112.26 796,-112.14 "/>
</g>
<!-- aind_bci_no_movement.task_logic.BciNoMovementTaskParameters&#45;&gt;aind_bci_no_movement.task_logic.SignalProcessing -->
<g id="edge4" class="edge">
<title>aind_bci_no_movement.task_logic.BciNoMovementTaskParameters:e&#45;&gt;aind_bci_no_movement.task_logic.SignalProcessing:w</title>
<path fill="none" stroke="black" d="M713.22,-144.02C749.43,-140.52 761.65,-118.82 795.61,-113.62"/>
<polyline fill="none" stroke="black" points="703,-144.5 707.99,-144.27 "/>
<polyline fill="none" stroke="black" points="707.99,-144.27 712.99,-144.03 "/>
<polyline fill="none" stroke="black" points="811,-112.5 806.01,-112.86 "/>
<polygon fill="black" stroke="black" points="804.65,-107.95 805.38,-117.92 803.38,-118.07 802.66,-108.09 804.65,-107.95"/>
<polyline fill="none" stroke="black" points="806.01,-112.86 801.03,-113.23 "/>
<polygon fill="black" stroke="black" points="799.67,-108.31 800.39,-118.29 798.4,-118.43 797.67,-108.46 799.67,-108.31"/>
<polyline fill="none" stroke="black" points="801.03,-113.23 796.04,-113.59 "/>
</g>
<!-- aind_bci_no_movement.task_logic.BciNoMovementTaskParameters&#45;&gt;aind_bci_no_movement.task_logic.SignalProcessing -->
<g id="edge5" class="edge">
<title>aind_bci_no_movement.task_logic.BciNoMovementTaskParameters:e&#45;&gt;aind_bci_no_movement.task_logic.SignalProcessing:w</title>
<path fill="none" stroke="black" d="M713.17,-123.33C748.16,-122.1 762.62,-114.73 795.61,-112.91"/>
<polyline fill="none" stroke="black" points="703,-123.5 708,-123.41 "/>
<polyline fill="none" stroke="black" points="708,-123.41 713,-123.33 "/>
<polyline fill="none" stroke="black" points="811,-112.5 806,-112.63 "/>
<polygon fill="black" stroke="black" points="804.87,-107.66 805.13,-117.66 803.14,-117.71 802.87,-107.71 804.87,-107.66"/>
<polyline fill="none" stroke="black" points="806,-112.63 801,-112.77 "/>
<polygon fill="black" stroke="black" points="799.87,-107.79 800.14,-117.79 798.14,-117.84 797.87,-107.85 799.87,-107.79"/>
<polyline fill="none" stroke="black" points="801,-112.77 796.01,-112.9 "/>
</g>
</g>
</svg>
